<svg xmlns="http://www.w3.org/2000/svg" xmlns:xlink="http://www.w3.org/1999/xlink" xml:space="preserve" version="1.1" style="shape-rendering:geometricPrecision;text-rendering:geometricPrecision;image-rendering:optimizeQuality;" viewBox="0 0 301 376.25" x="0px" y="0px" fill-rule="evenodd" clip-rule="evenodd"><defs><style type="text/css">
   
    .fil0 {fill:black}
   
  </style></defs><g><path class="fil0" d="M298 175c-12,-47 -55,-80 -103,-78 -11,-22 -29,-40 -52,-50 -6,-3 -9,6 -4,8 77,33 74,146 -7,174 -2,-4 -3,-7 -4,-11 0,0 0,0 0,0 84,-28 69,-149 -16,-159l32 -29c1,-2 1,-4 0,-6l0 0c0,0 0,0 0,0l-15 -22c0,-1 -2,-2 -3,-2l-48 0c-1,0 -3,1 -3,2l-15 22c-1,2 -1,4 1,6l31 29c-73,9 -98,102 -40,146 14,11 30,17 47,17 1,4 2,8 4,12 -20,0 -39,-6 -56,-18 -58,-42 -48,-132 18,-161 5,-2 2,-11 -4,-8 -72,31 -83,130 -19,176 18,13 39,20 60,20 1,0 3,0 4,0 4,7 8,14 13,20 68,84 205,18 179,-88zm-95 -49c32,2 59,25 67,56 15,64 -55,113 -109,80 -8,-5 -14,-11 -19,-17 -2,-3 -4,-5 -6,-8 46,-16 74,-63 67,-111zm-77 83c-4,-34 16,-67 48,-79 5,35 -15,68 -48,79zm-45 -200l42 0 9 13 -60 0 9 -13zm-6 22l54 0 -27 25 -27 -25zm23 182c-15,-1 -29,-6 -40,-15 -55,-42 -26,-129 43,-131 26,0 50,14 64,36 -46,16 -74,62 -67,110zm28 45c-39,-48 -21,-125 43,-147 1,3 3,7 4,11 -57,18 -72,87 -38,129 6,7 13,13 21,18 61,38 140,-18 122,-89 -8,-36 -40,-61 -77,-63 0,0 0,0 0,-1 -1,-3 -2,-7 -3,-10 43,0 81,29 91,71 24,97 -101,157 -163,81z"/></g><text x="0" y="316" fill="#000000" font-size="5px" font-weight="bold" font-family="'Helvetica Neue', Helvetica, Arial-Unicode, Arial, Sans-serif">Created by Chrystina Angeline</text><text x="0" y="321" fill="#000000" font-size="5px" font-weight="bold" font-family="'Helvetica Neue', Helvetica, Arial-Unicode, Arial, Sans-serif">from the Noun Project</text></svg>