<svg xmlns="http://www.w3.org/2000/svg" xmlns:xlink="http://www.w3.org/1999/xlink" xml:space="preserve" version="1.1" style="shape-rendering:geometricPrecision;text-rendering:geometricPrecision;image-rendering:optimizeQuality;" viewBox="0 0 301 347.5" x="0px" y="0px" fill-rule="evenodd" clip-rule="evenodd"><defs><style type="text/css">
   
    .fil0 {fill:#d63447}
   
  </style></defs><g><path class="fil0" d="M208 93c-22,0 -42,7 -58,20 -15,-13 -36,-20 -57,-20 -93,0 -128,120 -51,170 33,22 77,20 108,-5 34,27 82,27 116,0 68,-54 30,-165 -58,-165zm-63 -5l5 3 6 -3c17,-12 45,-32 45,-55 0,-26 -29,-42 -51,-28 -21,-14 -51,2 -51,28 0,23 28,43 46,55zm-12 -68c8,0 13,7 17,12 5,-5 10,-12 18,-12 8,0 14,6 14,13 0,12 -22,28 -32,35 -9,-7 -31,-23 -31,-35 0,-7 6,-13 14,-13zm-80 227c-61,-39 -33,-135 40,-135 16,0 31,6 43,15 -28,34 -28,83 0,118 -24,18 -57,19 -83,2zm97 -106c21,26 21,63 0,90 -20,-27 -20,-64 0,-90zm15 104c27,-35 27,-84 0,-118 12,-9 27,-15 43,-15 71,0 100,90 44,132 -26,20 -62,20 -87,1z"/></g>
  
  <!-- <text x="0" y="293" fill="#000000" font-size="5px" font-weight="bold" font-family="'Helvetica Neue', Helvetica, Arial-Unicode, Arial, Sans-serif">Created by Chrystina Angeline</text><text x="0" y="298" fill="#000000" font-size="5px" font-weight="bold" font-family="'Helvetica Neue', Helvetica, Arial-Unicode, Arial, Sans-serif">from the Noun Project</text> -->
  
  </svg>