<svg 

xmlns="http://www.w3.org/2000/svg" xmlns:xlink="http://www.w3.org/1999/xlink" version="1.1" x="0px" y="0px" viewBox="0 0 100 125" enable-background="new 0 0 100 100" xml:space="preserve"><g>
<path fill="#ffd31d" d="M45.109,64.911c1.236-0.59,2.397-1.314,3.441-2.178c-3.153-3.324-5.103-7.801-5.103-12.733   s1.949-9.409,5.103-12.733c-1.044-0.864-2.205-1.588-3.441-2.178C41.59,39.064,39.448,44.286,39.448,50S41.59,60.935,45.109,64.911   z"/>
<path fill="#000000" d="M61.979,27.47c-3.6,0-7,0.853-10.02,2.359c1.23,0.853,2.383,1.812,3.436,2.871   c2.049-0.783,4.264-1.23,6.584-1.23c10.217,0,18.529,8.312,18.529,18.53s-8.312,18.53-18.529,18.53c-2.32,0-4.535-0.447-6.584-1.23   c-1.053,1.059-2.205,2.018-3.436,2.871c3.02,1.506,6.42,2.359,10.02,2.359C74.4,72.53,84.508,62.423,84.508,50   S74.4,27.47,61.979,27.47z"/><path fill="#000000" d="M38.023,72.53c12.423,0,22.53-10.107,22.53-22.53s-10.107-22.53-22.53-22.53S15.493,37.577,15.493,50   S25.6,72.53,38.023,72.53z M38.023,31.47c10.217,0,18.53,8.312,18.53,18.53s-8.313,18.53-18.53,18.53   c-10.218,0-18.53-8.312-18.53-18.53S27.805,31.47,38.023,31.47z"/></g>
<!-- <text x="0" y="115" fill="#000000" font-size="5px" font-weight="bold" font-family="'Helvetica Neue', Helvetica, Arial-Unicode, Arial, Sans-serif">Created by Elizabeth Lopez</text><text x="0" y="120" fill="#000000" font-size="5px" font-weight="bold" font-family="'Helvetica Neue', Helvetica, Arial-Unicode, Arial, Sans-serif">from the Noun Project</text> -->
</svg>