<svg xmlns="http://www.w3.org/2000/svg" xmlns:xlink="http://www.w3.org/1999/xlink" xmlns:serif="http://www.serif.com/" viewBox="0 0 64 80" version="1.1" xml:space="preserve" style="" x="0px" y="0px" fill-rule="evenodd" clip-rule="evenodd" stroke-linejoin="round" stroke-miterlimit="2">
<g transform="matrix(1,0,0,1,-115,0)"  fill="#d63447">
<path d="M152.562,14.134C151.441,13.221 150.419,12.16 149.899,11.112C148.601,8.638 148.799,6.169 150.101,4.932C151.286,3.806 153.464,3.533 155,4.999C156.536,3.533 158.714,3.806 159.899,4.932C161.201,6.169 161.399,8.638 160.101,11.112C159.581,12.16 158.559,13.221 157.438,14.134C168.435,15.349 177,24.682 177,36C177,48.142 167.142,58 155,58C153.1,58 151.255,57.759 149.495,57.304C149.436,57.358 149.369,57.405 149.295,57.444C146.223,59.075 142.718,60 139,60C126.858,60 117,50.142 117,38C117,26.682 125.565,17.349 136.562,16.134C135.441,15.221 134.419,14.16 133.899,13.112C132.601,10.638 132.799,8.169 134.101,6.932C135.286,5.806 137.464,5.533 139,6.999C140.536,5.533 142.714,5.806 143.899,6.932C145.201,8.169 145.399,10.638 144.101,13.112C143.575,14.173 142.534,15.246 141.397,16.167C142.394,16.302 143.371,16.51 144.324,16.763C146.813,15.378 149.599,14.461 152.562,14.134ZM141.965,18.281C140.997,18.106 140.007,18 139,18C127.962,18 119,26.962 119,38C119,49.038 127.962,58 139,58C141.767,58 144.404,57.437 146.801,56.419C145.5,55.896 144.261,55.251 143.096,54.5C143.073,54.507 143.049,54.514 143.025,54.52C141.734,54.834 140.387,55 139,55C129.617,55 122,47.383 122,38C122,28.647 129.57,21.047 138.912,21C139.843,20.003 140.865,19.091 141.965,18.281ZM155,16C166.038,16 175,24.962 175,36C175,47.038 166.038,56 155,56C143.962,56 135,47.038 135,36C135,24.962 143.962,16 155,16ZM137.174,23.11C129.756,24.011 124,30.339 124,38C124,46.279 130.721,53 139,53C139.643,53 140.276,52.96 140.898,52.881C136.072,48.844 133,42.778 133,36C133,31.187 134.549,26.733 137.174,23.11ZM155,19C145.617,19 138,26.617 138,36C138,45.383 145.617,53 155,53C164.383,53 172,45.383 172,36C172,26.617 164.383,19 155,19ZM156.826,50.89C164.244,49.989 170,43.661 170,36C170,27.721 163.279,21 155,21C154.348,21 153.707,21.042 153.077,21.122C156.93,24.283 159.639,28.721 160.608,33.813C160.711,34.355 160.355,34.879 159.813,34.982C159.27,35.086 158.746,34.729 158.643,34.187C157.658,29.01 154.691,24.578 150.505,21.686C149.361,22.045 148.277,22.538 147.269,23.146C152.476,26.052 156,31.618 156,38C156,42.869 153.949,47.262 150.664,50.363C151.796,50.704 152.984,50.916 154.211,50.98C157.197,47.485 159,42.952 159,38C159,37.448 159.448,37 160,37C160.552,37 161,37.448 161,38C161,42.813 159.451,47.266 156.826,50.89ZM145.435,24.449C142.115,27.201 140,31.356 140,36C140,41.976 143.503,47.141 148.565,49.551C151.884,46.799 154,42.645 154,38C154,32.024 150.497,26.859 145.435,24.449ZM139,15.462C140.307,14.581 141.726,13.41 142.313,12.216L142.326,12.191C142.767,11.352 143,10.516 143,9.782C143,9.211 142.865,8.708 142.522,8.382C141.856,7.749 140.551,7.857 139.885,9.123C139.712,9.451 139.371,9.657 139,9.657C138.629,9.657 138.288,9.451 138.115,9.123C137.449,7.857 136.144,7.749 135.478,8.382C135.135,8.708 135,9.211 135,9.782C135,10.516 135.233,11.352 135.674,12.191L135.687,12.216C136.274,13.41 137.693,14.581 139,15.462ZM155,13.462C156.307,12.581 157.726,11.41 158.313,10.216L158.326,10.191C158.767,9.352 159,8.516 159,7.782C159,7.211 158.865,6.708 158.522,6.382C157.856,5.749 156.551,5.857 155.885,7.123C155.712,7.451 155.371,7.657 155,7.657C154.629,7.657 154.288,7.451 154.115,7.123C153.449,5.857 152.144,5.749 151.478,6.382C151.135,6.708 151,7.211 151,7.782C151,8.516 151.233,9.352 151.674,10.191L151.687,10.216C152.274,11.41 153.693,12.581 155,13.462Z"/></g>
<!-- <text x="0" y="79" fill="#000000" font-size="5px" font-weight="bold" font-family="'Helvetica Neue', Helvetica, Arial-Unicode, Arial, Sans-serif">Created by Blangcon</text><text x="0" y="84" fill="#000000" font-size="5px" font-weight="bold" font-family="'Helvetica Neue', Helvetica, Arial-Unicode, Arial, Sans-serif">from the Noun Project</text> -->
</svg>