<?xml version="1.0" encoding="iso-8859-1"?>
<!-- Generator: Adobe Illustrator 19.0.0, SVG Export Plug-In . SVG Version: 6.00 Build 0)  -->
<svg version="1.1" id="Capa_1" xmlns="http://www.w3.org/2000/svg" xmlns:xlink="http://www.w3.org/1999/xlink" x="0px" y="0px"
	 viewBox="0 0 512.001 512.001" style="enable-background:new 0 0 512.001 512.001;" xml:space="preserve">
<path style="fill:#FFCE54;" d="M149.333,184.54C66.859,184.54,0,251.398,0,333.874c0,82.475,66.859,149.334,149.333,149.334
	c82.475,0,149.334-66.859,149.334-149.334C298.667,251.398,231.808,184.54,149.333,184.54z M149.333,456.541
	c-67.745,0-122.666-54.921-122.666-122.667s54.921-122.667,122.666-122.667c67.747,0,122.668,54.921,122.668,122.667
	C272.001,401.62,217.08,456.541,149.333,456.541z"/>
<path style="fill:#F6BB42;" d="M362.666,184.54c-41.789,0-79.561,17.173-106.665,44.836c6.267,6.398,11.961,13.358,17.004,20.798
	c22.39-23.973,54.272-38.967,89.661-38.967c67.747,0,122.668,54.921,122.668,122.667s-54.921,122.667-122.668,122.667
	C294.921,456.541,240,401.62,240,333.874c0-22.042,5.818-42.721,15.995-60.598c-4.764-8.369-10.482-16.121-17.01-23.108
	c-16.19,23.875-25.651,52.686-25.651,83.707c0,82.475,66.859,149.334,149.333,149.334c82.475,0,149.334-66.859,149.334-149.334
	C512,251.398,445.141,184.54,362.666,184.54z"/>
<path id="SVGCleanerId_0" style="fill:#FFCE54;" d="M238.997,417.574c-22.39,23.973-54.273,38.967-89.664,38.967
	c-67.745,0-122.666-54.921-122.666-122.667s54.921-122.667,122.666-122.667c67.747,0,122.668,54.921,122.668,122.667
	c0,22.038-5.817,42.717-15.992,60.592c4.765,8.367,10.487,16.113,17.016,23.102c16.185-23.873,25.642-52.679,25.642-83.694
	c0-82.475-66.859-149.334-149.334-149.334C66.859,184.54,0,251.398,0,333.874c0,82.475,66.859,149.334,149.333,149.334
	c41.791,0,79.564-17.173,106.669-44.838C249.734,431.972,244.04,425.011,238.997,417.574z"/>
<g>
	<path id="SVGCleanerId_0_1_" style="fill:#FFCE54;" d="M238.997,417.574c-22.39,23.973-54.273,38.967-89.664,38.967
		c-67.745,0-122.666-54.921-122.666-122.667s54.921-122.667,122.666-122.667c67.747,0,122.668,54.921,122.668,122.667
		c0,22.038-5.817,42.717-15.992,60.592c4.765,8.367,10.487,16.113,17.016,23.102c16.185-23.873,25.642-52.679,25.642-83.694
		c0-82.475-66.859-149.334-149.334-149.334C66.859,184.54,0,251.398,0,333.874c0,82.475,66.859,149.334,149.333,149.334
		c41.791,0,79.564-17.173,106.669-44.838C249.734,431.972,244.04,425.011,238.997,417.574z"/>
</g>
<path style="fill:#ED5565;" d="M317.852,41.6c-17.077-17.077-44.769-17.077-61.856,0c-17.078-17.077-44.769-17.077-61.857,0
	c-17.077,17.089-17.077,44.779,0,61.867l56.162,56.152h0.015c1.449,1.463,3.46,2.372,5.683,2.372c2.206,0,4.204-0.894,5.652-2.339
	h0.005l56.195-56.186C334.94,86.38,334.94,58.689,317.852,41.6z"/>
<path style="fill:#DA4453;" d="M317.852,41.6c-12.685-12.685-31.225-15.939-46.927-9.778c5.435,2.133,10.531,5.386,14.923,9.778
	c17.09,17.089,17.09,44.779,0,61.867l-45.853,45.847l10.307,10.305h0.015c1.449,1.463,3.46,2.372,5.683,2.372
	c2.206,0,4.204-0.894,5.652-2.339h0.005l56.195-56.186C334.94,86.38,334.94,58.689,317.852,41.6z"/>
<g>
</g>
<g>
</g>
<g>
</g>
<g>
</g>
<g>
</g>
<g>
</g>
<g>
</g>
<g>
</g>
<g>
</g>
<g>
</g>
<g>
</g>
<g>
</g>
<g>
</g>
<g>
</g>
<g>
</g>
</svg>
