<svg id="Layer_1" enable-background="new 0 0 511.828 511.828" height="512" viewBox="0 0 511.828 511.828" width="512" xmlns="http://www.w3.org/2000/svg"><g><path d="m323.289 77.263h-.004c39.964-47.907-25.059-104.022-66.507-62.737-45.174-42.904-105.082 18.652-66.507 62.737.662.692 40.622 42.459 58.28 60.916 4.488 4.691 11.965 4.692 16.454.001 17.491-18.281 56.774-59.339 58.284-60.917z" fill="#ff0059"/><path d="m256.862 14.446v127.252c2.963-.022 5.919-1.193 8.142-3.516 17.491-18.282 56.775-59.34 58.284-60.917h-.004c39.937-47.874-24.97-103.944-66.422-62.819z" fill="#c1126b"/><path d="m343.753 266.26c-8.905-21.055-21.642-39.951-37.858-56.166-16.215-16.215-35.112-28.953-56.166-37.858-21.826-9.231-44.979-13.912-68.816-13.912s-46.99 4.681-68.816 13.912c-21.054 8.905-39.952 21.643-56.166 37.858-16.216 16.214-28.953 35.111-37.858 56.166-9.231 21.824-13.912 44.976-13.912 68.816 0 23.839 4.681 46.993 13.912 68.816 8.905 21.055 21.642 39.952 37.858 56.166 16.215 16.215 35.112 28.953 56.166 37.858 21.826 9.231 44.979 13.912 68.816 13.912s46.99-4.681 68.816-13.912c21.054-8.905 39.952-21.643 56.166-37.858 16.215-16.214 28.952-35.111 37.858-56.166 9.231-21.824 13.912-44.977 13.912-68.816s-4.681-46.992-13.912-68.816zm-43.993 68.816c0 65.533-53.315 118.847-118.847 118.847s-118.847-53.314-118.847-118.847c0-65.532 53.315-118.846 118.847-118.846s118.847 53.314 118.847 118.846z" fill="#ffda2d"/><path d="m493.755 266.26c-8.905-21.055-21.642-39.951-37.858-56.166-16.215-16.215-35.112-28.953-56.166-37.858-21.826-9.231-44.979-13.912-68.816-13.912s-46.99 4.681-68.816 13.912c-21.054 8.905-39.952 21.643-56.166 37.858-16.215 16.215-28.952 35.111-37.858 56.166-9.231 21.824-13.912 44.976-13.912 68.816 0 23.839 4.681 46.993 13.912 68.816 8.905 21.055 21.642 39.952 37.858 56.166 16.215 16.215 35.112 28.953 56.166 37.858 21.826 9.231 44.979 13.912 68.816 13.912s46.99-4.681 68.816-13.912c21.054-8.905 39.952-21.643 56.166-37.858 16.215-16.214 28.952-35.111 37.858-56.166 9.231-21.824 13.912-44.977 13.912-68.816s-4.681-46.992-13.912-68.816zm-43.993 68.816c0 65.533-53.315 118.847-118.847 118.847s-118.847-53.315-118.847-118.847 53.315-118.846 118.847-118.846 118.847 53.314 118.847 118.846z" fill="#ffa725"/><path d="m299.76 335.076c0 65.533-53.315 118.847-118.847 118.847v57.905c23.837 0 46.99-4.68 68.816-13.912 21.054-8.906 39.952-21.643 56.166-37.858 16.215-16.214 28.952-35.111 37.858-56.166 9.231-21.824 13.912-44.977 13.912-68.816s-4.681-46.992-13.912-68.816c-8.905-21.055-21.642-39.951-37.858-56.166-16.215-16.215-35.112-28.953-56.166-37.858-21.826-9.231-44.979-13.912-68.816-13.912v57.905c65.533 0 118.847 53.315 118.847 118.847z" fill="#fdbf00"/><path d="m449.762 335.076c0 65.533-53.315 118.847-118.847 118.847v57.905c23.837 0 46.99-4.68 68.816-13.912 21.054-8.906 39.952-21.643 56.166-37.858 16.215-16.214 28.952-35.111 37.858-56.166 9.231-21.824 13.912-44.977 13.912-68.816s-4.681-46.992-13.912-68.816c-8.905-21.055-21.642-39.951-37.858-56.166-16.215-16.215-35.112-28.953-56.166-37.858-21.826-9.231-44.979-13.912-68.816-13.912v57.905c65.533 0 118.847 53.315 118.847 118.847z" fill="#ff8700"/></g></svg>